:FULLY-SPECIFIED
:FORCE-ALL-JOINTS-BE-3DOF
:DEGREES
81
root -3.06042 17.0541 -15.1111 0.580161 -6.85362 3.61218
lfemur -3.09174 -4.67249 -27.854
ltibia 34.4236 0 0
lfoot -14.9151 -2.4633 0.145043
ltoes -1.98703 0 0
rfemur -24.9827 10.533 14.3356
rtibia 20.4076 0 0
rfoot -5.25594 -3.02627 -0.157167
rtoes 1.69557 0 0
lowerback 6.58039 -1.28127 -4.22677
upperback -0.457229 -1.95995 2.06201
thorax -3.97704 -0.866226 4.7282
lowerneck -14.0981 -2.64938 -11.0611
upperneck 22.41 -2.099 4.38867
head 9.59598 -1.44346 3.11204
lclavicle -1.87255e-14 -1.59027e-14 -4.57668e-31
lhumerus -29.1727 8.05966 83.2847
lradius 33.4499 0 0
lwrist -5.72571 0 0
lhand -14.8733 32.0803 0.0347885
lfingers 7.12502 0 0
lthumb 11.2868 61.7544 0.0331663
rclavicle -1.87255e-14 -1.59027e-14 -4.57668e-31
rhumerus -41.9212 -13.4353 -73.9822
rradius 36.4716 0 0
rwrist 2.05719 0 0
rhand -14.4125 13.7324 0.00820852
rfingers 7.12502 0 0
rthumb 11.7313 -15.9185 0.00801397
82
root -3.0732 17.0362 -14.8806 0.657822 -6.89608 3.50773
lfemur -2.73012 -5.08659 -27.7101
ltibia 33.9607 0 0
lfoot -15.2301 -2.24741 0.166479
ltoes -3.11818 0 0
rfemur -24.2039 10.8047 14.1547
rtibia 18.6658 0 0
rfoot -6.1426 -1.99037 -0.107042
rtoes 0.668152 0 0
lowerback 6.59341 -1.26365 -4.15444
upperback -0.445127 -1.92796 2.12093
thorax -3.97323 -0.852938 4.74952
lowerneck -14.0609 -2.66851 -11.0069
upperneck 22.2993 -2.11836 4.28573
head 9.54941 -1.45579 3.062
lclavicle 3.28044e-14 -1.56642e-14 3.73179e-30
lhumerus -29.0407 8.42927 83.1762
lradius 33.9745 0 0
lwrist -4.28411 0 0
lhand -15.9348 26.1194 0.00172202
lfingers 7.12502 0 0
lthumb 10.263 55.8485 0.00156422
rclavicle 3.28044e-14 -1.56642e-14 3.73179e-30
rhumerus -42.104 -13.4631 -73.7814
rradius 36.5849 0 0
rwrist 1.91065 0 0
rhand -14.5673 13.8978 0.00537377
rfingers 7.12502 0 0
rthumb 11.582 -15.762 0.00522188
83
root -3.08307 17.0129 -14.6476 0.723656 -6.96534 3.39541
lfemur -2.49899 -5.50787 -27.5744
ltibia 33.7332 0 0
lfoot -15.2204 -2.11417 0.178237
ltoes -3.64863 0 0
rfemur -23.5279 10.9399 14.0803
rtibia 17.1823 0 0
rfoot -6.86863 -0.645575 -0.0522392
rtoes -1.03878 0 0
lowerback 6.67115 -1.29974 -4.14168
upperback -0.504843 -1.97167 2.28543
thorax -4.06779 -0.869931 4.92377
lowerneck -13.9396 -2.59509 -11.0916
upperneck 22.2575 -1.98696 4.19105
head 9.50186 -1.41194 3.0596
lclavicle 3.21285e-14 2.8625e-15 1.16155e-30
lhumerus -29.0073 9.27631 83.046
lradius 34.1913 0 0
lwrist -3.56093 0 0
lhand -15.5105 24.5221 -0.00524753
lfingers 7.12502 0 0
lthumb 10.6723 54.2301 -0.0052418
rclavicle 3.21285e-14 2.8625e-15 1.16155e-30
rhumerus -42.2382 -13.2056 -73.5092
rradius 36.5618 0 0
rwrist 2.09347 0 0
rhand -15.1019 14.2069 0.00056685
rfingers 7.12502 0 0
rthumb 11.0665 -15.4813 0.000546928
84
root -3.0931 16.9891 -14.4157 0.719953 -6.98329 3.27344
lfemur -2.37699 -5.98017 -27.4409
ltibia 33.7056 0 0
lfoot -14.9987 -2.0663 0.187089
ltoes -4.18653 0 0
rfemur -22.8254 10.7192 14.2743
rtibia 16.3371 0 0
rfoot -7.52662 1.07364 0.00696738
rtoes -2.91864 0 0
lowerback 6.8117 -1.38775 -4.05852
upperback -0.485578 -2.08256 2.43357
thorax -4.11224 -0.923609 5.04218
lowerneck -14.2511 -2.52365 -11.2039
upperneck 22.4543 -1.8213 4.19398
head 9.61797 -1.34649 3.10274
lclavicle -2.3857e-16 2.8625e-15 9.6979e-31
lhumerus -28.9479 10.2574 82.8786
lradius 34.356 0 0
lwrist -3.33092 0 0
lhand -15.3822 24.7083 -0.00441264
lfingers 7.12502 0 0
lthumb 10.796 54.41 -0.00440481
rclavicle -2.3857e-16 2.8625e-15 9.6979e-31
rhumerus -42.1491 -13.1559 -73.1629
rradius 36.2297 0 0
rwrist 2.54825 0 0
rhand -14.9055 13.8703 0.00159772
rfingers 7.12502 0 0
rthumb 11.2558 -15.8077 0.00154441
85
root -3.10534 16.9733 -14.1878 0.733533 -7.04703 2.97995
lfemur -2.37941 -6.54628 -27.1445
ltibia 33.8407 0 0
lfoot -14.7114 -2.02027 0.196128
ltoes -5.34362 0 0
rfemur -22.255 10.7215 14.6379
rtibia 16.0843 0 0
rfoot -7.89377 2.70005 0.0506774
rtoes -4.08901 0 0
lowerback 6.94413 -1.37075 -3.67184
upperback -0.464059 -2.03154 2.49612
thorax -4.17923 -0.903164 4.88155
lowerneck -14.4479 -2.53194 -11.0552
upperneck 22.5696 -1.81302 4.06741
head 9.6927 -1.34477 3.03547
lclavicle -8.09552e-15 -1.35174e-14 -1.63587e-30
lhumerus -29.0209 10.5399 82.7533
lradius 34.7538 0 0
lwrist -2.7239 0 0
lhand -15.4707 25.1116 -0.00296188
lfingers 7.12502 0 0
lthumb 10.7108 54.8182 -0.00292413
rclavicle -8.09552e-15 -1.35174e-14 -1.63587e-30
rhumerus -42.2391 -13.4429 -72.8544
rradius 36.0728 0 0
rwrist 2.84901 0 0
rhand -14.5069 13.4671 0.00388459
rfingers 7.12502 0 0
rthumb 11.6403 -16.1895 0.00377457
86
root -3.11637 16.9604 -13.9582 0.806985 -7.32161 2.8258
lfemur -2.54157 -6.94188 -27.0423
ltibia 34.1637 0 0
lfoot -14.2712 -1.90284 0.200326
ltoes -7.54972 0 0
rfemur -21.9258 10.7145 14.855
rtibia 16.4189 0 0
rfoot -7.9682 4.45244 0.0994049
rtoes -3.63126 0 0
lowerback 6.93161 -1.22461 -3.35941
upperback -0.426002 -1.81266 2.44757
thorax -4.16447 -0.802303 4.62804
lowerneck -14.7026 -2.61825 -10.8713
upperneck 22.6962 -1.92535 3.97693
head 9.79237 -1.39169 2.9605
lclavicle -2.97432e-14 1.83677e-14 -1.05908e-30
lhumerus -29.0202 10.6105 82.6087
lradius 34.9964 0 0
lwrist -2.3056 0 0
lhand -15.7542 25.0019 -0.00251935
lfingers 7.12502 0 0
lthumb 10.4372 54.7224 -0.00250673
rclavicle -2.97432e-14 1.83677e-14 -1.05908e-30
rhumerus -42.3489 -13.7029 -72.7629
rradius 36.0361 0 0
rwrist 3.09338 0 0
rhand -14.7413 12.558 0.00240761
rfingers 7.12502 0 0
rthumb 11.4143 -17.1112 0.0023419
